# xmcd
#
# Track frame offsets: 
#        150
#        19286
#        34799
#        56982
#        72925
#        89837
#        107875
#        128979
#        148977
#        163830
#        178020
#
# Disc length: 2611 seconds
#
# Revision: 0
# Processed by: cddbd v1.5.2PL0 Copyright (c) Steve Scherf et al.
# Submitted via: ExactAudioCopyFreeDBPlugin 1.0
#
DISCID=ae0a310b
DTITLE=Altered Five - Cryin' Mercy
DYEAR=2014
DGENRE=Blues
TTITLE0=Demon Woman
TTITLE1=I'm In Deep
TTITLE2=Find My Wings
TTITLE3=Stay Outta My Business
TTITLE4=Counterfeit Lover
TTITLE5=I Got You
TTITLE6=Who's Your Lover
TTITLE7=Move House
TTITLE8=Here's Your Hat, What's Your Hurry
TTITLE9=Urgent Care
TTITLE10=Back Button
EXTD=
EXTT0=
EXTT1=
EXTT2=
EXTT3=
EXTT4=
EXTT5=
EXTT6=
EXTT7=
EXTT8=
EXTT9=
EXTT10=
PLAYORDER=
